<svg xmlns="http://www.w3.org/2000/svg" viewBox="0 0 220 166">
  <defs>
    <linearGradient id="outer" x1="0" y1="0" x2="1" y2="1">
      <stop offset="0" stop-color="#FFF8D6"/><stop offset=".42" stop-color="#C78852"/><stop offset="1" stop-color="#44200B"/>
    </linearGradient>
    <linearGradient id="gold" x1="0" y1="0" x2="0" y2="1">
      <stop offset="0" stop-color="#FFFFEA"/><stop offset=".10" stop-color="#7C451B"/>
      <stop offset=".20" stop-color="#EFC18B"/><stop offset=".32" stop-color="#5E2B09"/>
      <stop offset=".45" stop-color="#C88C4F"/><stop offset=".58" stop-color="#472005"/>
      <stop offset=".72" stop-color="#A06B3A"/><stop offset=".86" stop-color="#623011"/>
      <stop offset="1" stop-color="#251004"/>
    </linearGradient>
    <linearGradient id="divider" x1="0" y1="0" x2="0" y2="1"><stop stop-color="#4B2B13"/><stop offset=".42" stop-color="#3B1A09"/><stop offset="1" stop-color="#100500"/></linearGradient>
    <linearGradient id="bevel" x1="0" y1="0" x2=".8" y2="1"><stop stop-color="#FFF0D3"/><stop offset=".34" stop-color="#C29872"/><stop offset="1" stop-color="#382012"/></linearGradient>
    <linearGradient id="innerLine" x1="0" y1="0" x2="0" y2="1"><stop stop-color="#FFF8E9"/><stop offset=".38" stop-color="#E3B994"/><stop offset="1" stop-color="#674027"/></linearGradient>
    <linearGradient id="callFace" x1="0" y1="0" x2=".82" y2="1"><stop stop-color="#2BA1F2"/><stop offset=".2" stop-color="#0D7CE0"/><stop offset=".72" stop-color="#07499C"/><stop offset="1" stop-color="#012B6A"/></linearGradient>
    <linearGradient id="callGloss" x1="0" y1="0" x2="0" y2="1"><stop stop-color="#DFFFFF" stop-opacity=".92"/><stop offset=".13" stop-color="#64CFFF" stop-opacity=".68"/><stop offset=".48" stop-color="#64CFFF" stop-opacity=".08"/><stop offset="1" stop-color="#64CFFF" stop-opacity="0"/></linearGradient>
    <linearGradient id="pressed" x1="0" y1="0" x2="0" y2="1"><stop stop-color="#001126" stop-opacity=".7"/><stop offset=".35" stop-color="#001126" stop-opacity="0"/><stop offset=".78" stop-color="#D4F5FF" stop-opacity="0"/><stop offset="1" stop-color="#D4F5FF" stop-opacity=".32"/></linearGradient>
    <linearGradient id="innerGlow" x1="0" y1="0" x2=".85" y2="1"><stop stop-color="#F5FFFF"/><stop offset=".34" stop-color="#8BDFFF"/><stop offset=".72" stop-color="#0957A9"/><stop offset="1" stop-color="#001A47"/></linearGradient>
    <radialGradient id="vignette" cx="46%" cy="40%" r="72%"><stop stop-color="#D9F7FF" stop-opacity=".15"/><stop offset=".46" stop-color="#D9F7FF" stop-opacity="0"/><stop offset=".78" stop-color="#001C50" stop-opacity=".12"/><stop offset="1" stop-color="#000A28" stop-opacity=".38"/></radialGradient>
    <clipPath id="faceClip"><rect x="20" y="20" width="180" height="126" rx="40"/></clipPath>
  </defs>
  <g id="rim">
    <rect width="220" height="166" rx="60" fill="url(#outer)"/>
    <rect x="1" y="1" width="218" height="164" rx="59" fill="url(#gold)"/>
    <rect x="10" y="10" width="200" height="146" rx="50" fill="url(#divider)"/>
    <rect x="14" y="14" width="192" height="138" rx="46" fill="url(#bevel)"/>
    <rect x="19" y="19" width="182" height="128" rx="41" fill="url(#innerLine)"/>
    <rect x="55" y="2" width="110" height="1" fill="#FFFFE4" fill-opacity=".7"/>
    <rect x="49" y="5" width="122" height="1" fill="#3A1607" fill-opacity=".92"/>
    <rect x="44" y="8" width="132" height="1" fill="#F5C996" fill-opacity=".7"/>
  </g>
  <g id="face"><rect x="20" y="20" width="180" height="126" rx="40" fill="url(#callFace)"/></g>
  <g id="gloss" clip-path="url(#faceClip)">
    <path d="M21 20H199V44C148 34 78 35 21 58Z" fill="url(#callGloss)"/>
    <rect x="20" y="20" width="180" height="126" fill="url(#vignette)"/>
    <rect x="21" y="21" width="178" height="124" rx="39" fill="none" stroke="url(#innerGlow)" stroke-width="2"/>
    <path d="M32 29C73 20 123 20 175 27" fill="none" stroke="#F7FFFF" stroke-opacity=".98" stroke-width="3" stroke-linecap="round"/>
    <path d="M43 34C84 25 127 25 163 29" fill="none" stroke="#A8EFFF" stroke-opacity=".42" stroke-width="1.4" stroke-linecap="round"/>
  </g>
  <g id="press" opacity="0" clip-path="url(#faceClip)"><rect x="20" y="20" width="180" height="126" fill="url(#pressed)"/></g>
</svg>
