<svg xmlns="http://www.w3.org/2000/svg" viewBox="0 0 280 135">
  <defs>
    <linearGradient id="outer" x1="0" y1="0" x2="1" y2="1"><stop stop-color="#604425"/><stop offset=".55" stop-color="#26180D"/><stop offset="1" stop-color="#100905"/></linearGradient>
    <linearGradient id="brightBevel" x1="0" y1="0" x2="0" y2="1"><stop stop-color="#FFFFEA"/><stop offset=".10" stop-color="#7C451B"/><stop offset=".20" stop-color="#EFC18B"/><stop offset=".32" stop-color="#5E2B09"/><stop offset=".45" stop-color="#C88C4F"/><stop offset=".58" stop-color="#472005"/><stop offset=".72" stop-color="#A06B3A"/><stop offset=".86" stop-color="#623011"/><stop offset="1" stop-color="#251004"/></linearGradient>
    <linearGradient id="valley" x1="0" y1="0" x2="0" y2="1"><stop stop-color="#3A1B08"/><stop offset=".38" stop-color="#130600"/><stop offset="1" stop-color="#050200"/></linearGradient>
    <linearGradient id="rise" x1="0" y1="0" x2=".75" y2="1"><stop stop-color="#F0C38E"/><stop offset=".36" stop-color="#916039"/><stop offset="1" stop-color="#321405"/></linearGradient>
    <linearGradient id="innerLine" x1="0" y1="0" x2="0" y2="1"><stop stop-color="#FFF4CA"/><stop offset=".44" stop-color="#D3A06C"/><stop offset="1" stop-color="#73421B"/></linearGradient>
    <linearGradient id="plateFace" x1="0" y1="0" x2=".75" y2="1"><stop stop-color="#FFE0B4"/><stop offset=".18" stop-color="#F9C691"/><stop offset=".72" stop-color="#E8B586"/><stop offset="1" stop-color="#D8A677"/></linearGradient>
    <linearGradient id="plateGloss" x1="0" y1="0" x2="1" y2="1"><stop stop-color="#FFFFFF" stop-opacity=".38"/><stop offset=".35" stop-color="#FFF3D8" stop-opacity=".1"/><stop offset="1" stop-color="#744911" stop-opacity=".12"/></linearGradient>
    <linearGradient id="pressed" x1="0" y1="0" x2="0" y2="1"><stop stop-color="#4B1D03" stop-opacity=".42"/><stop offset=".32" stop-color="#4B1D03" stop-opacity="0"/><stop offset="1" stop-color="#FFF7DD" stop-opacity=".2"/></linearGradient>
    <linearGradient id="innerGlow" x1="0" y1="0" x2=".85" y2="1"><stop stop-color="#FFFFEF"/><stop offset=".32" stop-color="#FFE1B3"/><stop offset=".72" stop-color="#C48449"/><stop offset="1" stop-color="#714019"/></linearGradient>
    <radialGradient id="vignette" cx="47%" cy="42%" r="74%"><stop stop-color="#FFF7E4" stop-opacity=".24"/><stop offset=".50" stop-color="#FFF7E4" stop-opacity="0"/><stop offset=".80" stop-color="#9A5C27" stop-opacity=".08"/><stop offset="1" stop-color="#633510" stop-opacity=".25"/></radialGradient>
    <clipPath id="faceClip"><rect x="13" y="13" width="254" height="109" rx="25"/></clipPath>
  </defs>
  <g id="rim">
    <rect width="280" height="135" rx="38" fill="url(#outer)"/>
    <rect x="1" y="1" width="278" height="133" rx="37" fill="url(#brightBevel)"/>
    <rect x="5" y="5" width="270" height="125" rx="33" fill="url(#valley)"/>
    <rect x="7" y="7" width="266" height="121" rx="31" fill="url(#rise)"/>
    <rect x="12" y="12" width="256" height="111" rx="26" fill="url(#innerLine)"/>
    <rect x="70" y="2" width="140" height="1" fill="#FFFFEA" fill-opacity=".88"/>
    <rect x="62" y="4" width="156" height="1" fill="#3A1607" fill-opacity=".94"/>
    <rect x="56" y="6" width="168" height="1" fill="#F0BE82" fill-opacity=".82"/>
    <rect x="50" y="8" width="180" height="1" fill="#401906" fill-opacity=".9"/>
    <rect x="46" y="10" width="188" height="1" fill="#F5CF96" fill-opacity=".74"/>
  </g>
  <g id="face"><rect x="13" y="13" width="254" height="109" rx="25" fill="url(#plateFace)"/></g>
  <g id="gloss" clip-path="url(#faceClip)">
    <path d="M16 17H264V43C200 29 86 29 16 56Z" fill="url(#plateGloss)"/>
    <rect x="13" y="13" width="254" height="109" fill="url(#vignette)"/>
    <rect x="14" y="14" width="252" height="107" rx="24" fill="none" stroke="url(#innerGlow)" stroke-width="2"/>
    <path d="M25 20C88 11 174 12 244 22" fill="none" stroke="#FFFDF1" stroke-opacity=".88" stroke-width="2.5" stroke-linecap="round"/>
    <path d="M43 24C105 17 170 17 225 23" fill="none" stroke="#FFE9CA" stroke-opacity=".34" stroke-width="1.2" stroke-linecap="round"/>
  </g>
  <g id="press" opacity="0" clip-path="url(#faceClip)"><rect x="13" y="13" width="254" height="109" fill="url(#pressed)"/></g>
</svg>
